<svg width="20" height="22" viewBox="0 0 20 22" fill="none" xmlns="http://www.w3.org/2000/svg">
<path fill-rule="evenodd" clip-rule="evenodd" d="M4.00013 4.75C4.00013 2.12665 6.12678 0 8.75013 0C11.3735 0 13.5001 2.12665 13.5001 4.75C13.5001 7.37335 11.3735 9.5 8.75013 9.5C6.12678 9.5 4.00013 7.37335 4.00013 4.75ZM8.75013 1.5C6.95521 1.5 5.50013 2.95507 5.50013 4.75C5.50013 6.54493 6.95521 8 8.75013 8C10.5451 8 12.0001 6.54493 12.0001 4.75C12.0001 2.95507 10.5451 1.5 8.75013 1.5Z" fill="#C4AA6C"/>
<path fill-rule="evenodd" clip-rule="evenodd" d="M2.72558 12.4143C4.30506 11.5259 6.43658 11 8.75013 11C11.0637 11 13.1952 11.5259 14.7747 12.4143C16.3307 13.2896 17.5001 14.6161 17.5001 16.25L17.5002 16.352C17.5013 17.5138 17.5027 18.972 16.2237 20.0135C15.5943 20.5261 14.7137 20.8906 13.5239 21.1315C12.3309 21.3729 10.7759 21.5 8.75013 21.5C6.72436 21.5 5.1694 21.3729 3.97634 21.1315C2.78661 20.8906 1.90602 20.5261 1.27655 20.0135C-0.00247979 18.972 -0.00106187 17.5138 6.78762e-05 16.352L0.000134216 16.25C0.000134216 14.6161 1.16962 13.2896 2.72558 12.4143ZM3.46098 13.7217C2.12151 14.4751 1.50013 15.3987 1.50013 16.25C1.50013 17.5578 1.54045 18.294 2.22372 18.8504C2.59425 19.1522 3.21366 19.4467 4.27393 19.6613C5.33087 19.8752 6.77591 20 8.75013 20C10.7244 20 12.1694 19.8752 13.2263 19.6613C14.2866 19.4467 14.906 19.1522 15.2765 18.8504C15.9598 18.294 16.0001 17.5578 16.0001 16.25C16.0001 15.3987 15.3788 14.4751 14.0393 13.7217C12.7233 12.9815 10.8549 12.5 8.75013 12.5C6.64541 12.5 4.77693 12.9815 3.46098 13.7217Z" fill="#C4AA6C"/>
<path d="M19.3107 7.74827C19.5859 7.43869 19.558 6.96463 19.2484 6.68944C18.9388 6.41425 18.4648 6.44214 18.1896 6.75173L16.0243 9.1877L15.2519 8.49253C14.944 8.21544 14.4698 8.24039 14.1927 8.54828C13.9156 8.85616 13.9405 9.33038 14.2484 9.60747L15.5817 10.8075C15.7302 10.9411 15.9258 11.01 16.1252 10.9988C16.3246 10.9877 16.5113 10.8975 16.644 10.7483L19.3107 7.74827Z" fill="#C4AA6C"/>
</svg>
