<svg width="24" height="24" viewBox="0 0 24 24" fill="none" xmlns="http://www.w3.org/2000/svg">
<path d="M20.9941 13.8682C20.964 16.9825 20.7816 19.8504 19.6816 20.8281C18.3636 21.9996 16.2425 22 12 22C7.75755 22 5.63639 21.9995 4.31836 20.8281C3.21839 19.8504 3.03597 16.9825 3.00586 13.8682L8.01074 15.3691C8.08699 16.1017 8.56257 16.7407 9.25684 17.0186L9.95703 17.2988C11.2683 17.8233 12.7317 17.8233 14.043 17.2988L14.7432 17.0186C15.4374 16.7407 15.913 16.1017 15.9893 15.3691L20.9941 13.8682ZM14 12.5C14.2761 12.5 14.5 12.7239 14.5 13V15.1611C14.5 15.3656 14.3754 15.55 14.1855 15.626L13.4854 15.9063C12.5319 16.2875 11.4681 16.2875 10.5146 15.9063L9.81445 15.626C9.62462 15.55 9.5 15.3656 9.5 15.1611V13C9.5 12.7239 9.72386 12.5 10 12.5H14ZM13.4395 2.25C13.5528 2.24999 13.6411 2.24984 13.7246 2.25489C14.785 2.31911 15.7141 2.98891 16.1104 3.97461C16.1415 4.05212 16.1693 4.13582 16.2051 4.24317L16.208 4.25293C16.2914 4.47725 16.4833 4.73179 16.751 4.93555C16.7806 4.95813 16.8101 4.97992 16.8398 5C18.9937 5.00251 20.1186 5.04232 20.8936 5.67286C21.0525 5.80219 21.1978 5.9475 21.3271 6.10645C22.0001 6.93355 22 8.15922 22 10.6094C22 11.2308 22.0003 11.5418 21.8496 11.7842C21.8202 11.8314 21.7868 11.8763 21.75 11.918C21.5611 12.132 21.2631 12.2209 20.668 12.3994L16 13.7998V13C16 11.8954 15.1046 11 14 11H10C8.89543 11 8 11.8954 8 13V13.7998L3.33203 12.3994C2.73688 12.2209 2.4389 12.132 2.25 11.918C2.2132 11.8763 2.17976 11.8314 2.15039 11.7842C1.99968 11.5418 2 11.2308 2 10.6094C2 8.15922 1.99987 6.93355 2.67285 6.10645C2.80219 5.9475 2.9475 5.80219 3.10645 5.67286C3.88138 5.04232 5.00625 5.00251 7.16016 5C7.18994 4.97992 7.21936 4.95812 7.24902 4.93555C7.51674 4.73178 7.70858 4.47719 7.79199 4.25293C7.82993 4.13913 7.85872 4.05401 7.89063 3.97461C8.28688 2.98892 9.21498 2.31913 10.2754 2.25489C10.3589 2.24983 10.4472 2.24999 10.5605 2.25H13.4395ZM10.3662 3.75196C9.8842 3.78115 9.46235 4.08613 9.28223 4.53418C9.27072 4.56284 9.25743 4.59899 9.21875 4.71485L9.2168 4.72071L9.21484 4.72754L9.20215 4.76563L9.2002 4.77051L9.19629 4.78125L9.19238 4.79297L9.1875 4.80469L9.18262 4.81446L9.18164 4.81836C9.15749 4.87982 9.13043 4.94044 9.10156 5H14.8984C14.8695 4.94038 14.8425 4.87989 14.8184 4.81836L14.8174 4.81446L14.8125 4.80469L14.8086 4.79297L14.8037 4.78125L14.7998 4.77051L14.7979 4.76563L14.7852 4.72754L14.7832 4.72071L14.7813 4.71485C14.7421 4.59759 14.7301 4.56238 14.7188 4.53418C14.5386 4.08613 14.1158 3.78115 13.6338 3.75196C13.6016 3.75003 13.5616 3.75 13.4189 3.75H10.5811C10.438 3.75 10.3984 3.75001 10.3662 3.75196Z" fill="#C4AA6C"/>
</svg>
