<svg width="24" height="24" viewBox="0 0 24 24" fill="none" xmlns="http://www.w3.org/2000/svg">
<path d="M7.5 7.75C7.5 5.26472 9.51472 3.25 12 3.25C14.4853 3.25 16.5 5.26472 16.5 7.75C16.5 10.2353 14.4853 12.25 12 12.25C9.51472 12.25 7.5 10.2353 7.5 7.75Z" fill="#C4AA6C"/>
<path d="M16.0793 11.8028C15.9849 11.8978 16.0218 12.0622 16.1499 12.1012C16.6595 12.2562 17.2239 12.4198 17.7929 12.5432C18.8747 12.778 20.1954 12.923 21.2074 12.3519C21.8649 11.9809 22.2255 11.211 22.4303 10.5064C22.6483 9.7561 22.7505 8.86732 22.7505 7.99998C22.7505 7.13264 22.6483 6.24386 22.4303 5.49359C22.2255 4.78899 21.8649 4.01906 21.2074 3.64803C20.1954 3.07696 18.8747 3.22197 17.7929 3.4567C17.5809 3.5027 17.3695 3.55427 17.1614 3.60889C16.7645 3.71301 16.5661 3.76508 16.5108 3.90807C16.4555 4.05106 16.5793 4.24189 16.8271 4.62356C17.4112 5.52352 17.7505 6.59711 17.7505 7.74994C17.7505 9.33116 17.1122 10.7633 16.0793 11.8028Z" fill="#C4AA6C"/>
<path d="M6.83911 3.6088C7.23592 3.71292 7.43432 3.76499 7.48966 3.90798C7.54499 4.05097 7.42113 4.2418 7.1734 4.62347C6.58926 5.52343 6.25 6.59702 6.25 7.74985C6.25 9.33107 6.88826 10.7632 7.9212 11.8027C8.01556 11.8977 7.97862 12.0622 7.85053 12.1011C7.341 12.2561 6.77653 12.4197 6.2076 12.5431C5.12577 12.7779 3.80506 12.9229 2.79306 12.3518C2.13555 11.9808 1.77497 11.2109 1.57021 10.5063C1.35217 9.75601 1.25 8.86723 1.25 7.99989C1.25 7.13254 1.35217 6.24376 1.57021 5.4935C1.77497 4.7889 2.13555 4.01897 2.79306 3.64794C3.80506 3.07687 5.12575 3.22187 6.20759 3.45661C6.41959 3.50261 6.63096 3.55418 6.83911 3.6088Z" fill="#C4AA6C"/>
<path d="M9.45339 12.9061C9.06848 12.7157 8.87603 12.6204 8.74442 12.6833C8.61282 12.7461 8.56967 12.9388 8.48339 13.3242L7.602 17.2611C7.44589 17.9583 7.31362 18.549 7.26826 18.994C7.24489 19.2233 7.23706 19.4743 7.28715 19.7124C7.34087 19.9677 7.47107 20.2476 7.74768 20.4458C8.29868 20.8406 8.88798 20.7989 9.36705 20.6094C9.80305 20.437 10.2086 20.1222 10.5339 19.8552C10.6386 19.7692 10.7365 19.687 10.8298 19.6085C11.0595 19.4155 11.2619 19.2455 11.471 19.0997C11.7705 18.8907 11.9311 18.8469 12 18.8469C12.0443 18.8469 12.1999 18.885 12.5201 19.0958C12.7388 19.2397 12.9576 19.4097 13.2026 19.6C13.298 19.6741 13.3976 19.7515 13.5024 19.8313C13.8435 20.0913 14.2542 20.3889 14.6727 20.5603C15.1038 20.7368 15.7032 20.8392 16.2523 20.4458C16.5289 20.2476 16.6591 19.9677 16.7129 19.7124C16.763 19.4743 16.7551 19.2233 16.7318 18.994C16.6864 18.549 16.5541 17.9584 16.398 17.2612L15.5166 13.3242C15.4303 12.9388 15.3872 12.7461 15.2556 12.6833C15.124 12.6204 14.9315 12.7156 14.5466 12.9061C13.779 13.2859 12.9144 13.4994 12 13.4994C11.0856 13.4994 10.221 13.2859 9.45339 12.9061Z" fill="#C4AA6C"/>
</svg>
