<svg width="42" height="42" viewBox="0 0 42 42" fill="none" xmlns="http://www.w3.org/2000/svg">
<circle cx="20.5176" cy="20.5176" r="20" stroke="#C4AA6C" stroke-width="1.03529"/>
<path d="M25.2168 27.811H15.8186C14.5199 27.811 13.4589 26.75 13.4589 25.4513V16.0531C13.4589 14.7544 14.5199 13.6934 15.8186 13.6934H25.2168C26.5155 13.6934 27.5765 14.7544 27.5765 16.0531V25.4513C27.5765 26.7558 26.5213 27.811 25.2168 27.811Z" stroke="#C4AA6C" stroke-width="1.03529"/>
<path d="M17.9582 23.3181C18.6424 24.0022 19.5526 24.3791 20.5208 24.3791C21.4891 24.3791 22.3935 24.0022 23.0835 23.3181C23.7676 22.6339 24.1445 21.7237 24.1445 20.7555C24.1445 19.7872 23.7676 18.877 23.0835 18.1928C22.3993 17.5087 21.4891 17.1318 20.5208 17.1318C19.5526 17.1318 18.6424 17.5087 17.9582 18.1928C17.2741 18.877 16.8972 19.7872 16.8972 20.7555C16.8972 21.7237 17.2741 22.6339 17.9582 23.3181Z" stroke="#C4AA6C" stroke-width="1.03529"/>
<path d="M24.8504 17.0126C25.2347 17.0126 25.5462 16.7011 25.5462 16.3168C25.5462 15.9326 25.2347 15.6211 24.8504 15.6211C24.4662 15.6211 24.1547 15.9326 24.1547 16.3168C24.1547 16.7011 24.4662 17.0126 24.8504 17.0126Z" stroke="#C4AA6C" stroke-width="1.03529"/>
</svg>
