<svg width="42" height="42" viewBox="0 0 42 42" fill="none" xmlns="http://www.w3.org/2000/svg">
<circle cx="20.5177" cy="20.5176" r="20" stroke="#C4AA6C" stroke-width="1.03529"/>
<path d="M16.0018 17.9346H12.5602V28.9097H16.0018V17.9346Z" stroke="#C4AA6C" stroke-width="1.03529"/>
<path d="M25.3116 17.6958C25.1847 17.6799 25.0499 17.672 24.9151 17.6641C22.9881 17.5848 21.9017 18.7267 21.5211 19.2184C21.418 19.3532 21.3704 19.4325 21.3704 19.4325V17.9654H18.0795V28.9405H21.3704H21.5211C21.5211 27.8224 21.5211 26.7122 21.5211 25.5941C21.5211 24.9914 21.5211 24.3887 21.5211 23.786C21.5211 23.0406 21.4656 22.2476 21.8383 21.5656C22.1555 20.9947 22.7264 20.7092 23.3688 20.7092C25.272 20.7092 25.3116 22.43 25.3116 22.5886C25.3116 22.5965 25.3116 22.6045 25.3116 22.6045V28.9881H28.7532V21.8273C28.7532 19.377 27.5082 17.9337 25.3116 17.6958Z" stroke="#C4AA6C" stroke-width="1.03529"/>
<path d="M14.2806 16.5143C15.3842 16.5143 16.2789 15.6196 16.2789 14.5159C16.2789 13.4123 15.3842 12.5176 14.2806 12.5176C13.1769 12.5176 12.2822 13.4123 12.2822 14.5159C12.2822 15.6196 13.1769 16.5143 14.2806 16.5143Z" stroke="#C4AA6C" stroke-width="1.03529"/>
</svg>
